<svg data-name="Chat with us" xmlns="http://www.w3.org/2000/svg" width="90.591" height="90.591" viewBox="0 0 90.591 90.591">
    <defs>
        <linearGradient id="mh8n4mb0ba" x1=".232" y1=".141" x2="1.095" y2=".73" gradientUnits="objectBoundingBox">
            <stop offset="0" stop-color="#e51937"/>
            <stop offset="1" stop-color="#b41028"/>
        </linearGradient>
        <clipPath id="41jkxv7j4b">
            <path data-name="Rectangle 10579" style="fill:url(#mh8n4mb0ba)" d="M0 0h57.862v41.839H0z"/>
        </clipPath>
    </defs>
    <g data-name="Path 15362" style="fill:#fff;opacity:.5">
        <path d="M71.94 90.091H18.651a18.091 18.091 0 0 1-12.835-5.316A18.091 18.091 0 0 1 .5 71.94V18.651A18.091 18.091 0 0 1 5.816 5.816 18.091 18.091 0 0 1 18.651.5h53.29a18.091 18.091 0 0 1 12.835 5.316 18.091 18.091 0 0 1 5.315 12.835v53.29a18.091 18.091 0 0 1-5.316 12.835A18.091 18.091 0 0 1 71.94 90.09z" style="stroke:none"/>
        <path d="M18.651 1A17.536 17.536 0 0 0 6.17 6.17 17.536 17.536 0 0 0 1 18.65v53.29c0 4.714 1.836 9.147 5.17 12.48a17.536 17.536 0 0 0 12.481 5.17h53.29c4.714 0 9.147-1.836 12.48-5.17a17.536 17.536 0 0 0 5.17-12.48V18.65c0-4.715-1.836-9.147-5.17-12.481A17.536 17.536 0 0 0 71.942 1H18.65m0-1h53.29c10.3 0 18.65 8.35 18.65 18.651v53.29c0 10.3-8.35 18.65-18.65 18.65H18.65C8.351 90.591 0 82.241 0 71.941V18.65C0 8.351 8.35 0 18.651 0z" style="fill:#c1c1c1;stroke:none"/>
    </g>
    <g data-name="Group 38794" style="clip-path:url(#41jkxv7j4b)" transform="translate(16.365 24.376)">
        <path data-name="Path 20926" d="M28.815 36.666c-2.3.056-4.606.2-6.9.136-1.544-.045-3.076-.418-4.619-.586a2.829 2.829 0 0 0-1.431.164c-3.452 1.6-6.881 3.253-10.319 4.888-.282.134-.571.254-1.084.481l4.25-8.968c-.879-.677-1.736-1.28-2.528-1.958A16.356 16.356 0 0 1 .165 20.659a14.891 14.891 0 0 1 3.483-11.98A23.548 23.548 0 0 1 18.214.547c7.818-1.4 15.164-.179 21.792 4.408.842.582 1.6 1.285 2.369 1.909-2.269.34-4.483.513-6.616 1.025A18.687 18.687 0 0 0 25.624 14.1c-5.5 6.505-4.589 15.6 2.11 21.292.36.306.731.6 1.1.9l-.015.375" transform="translate(.001)" style="fill:url(#mh8n4mb0ba)"/>
        <path data-name="Path 20927" d="m159.592 78.137 3.782 7.966c-.473-.2-.753-.306-1.023-.434-3.035-1.443-6.06-2.906-9.11-4.315a3.265 3.265 0 0 0-1.62-.276c-5.5.556-10.521-.566-14.668-4.369-3.3-3.026-4.882-6.793-3.808-11.31a12.564 12.564 0 0 1 4.747-7.046c6.392-4.989 16.5-4.892 22.755.263 2.925 2.412 4.775 5.451 4.727 9.342a11.9 11.9 0 0 1-4.392 9.047c-.427.374-.881.719-1.388 1.131M143 68.169a2.155 2.155 0 0 0-1.91-2.107 1.941 1.941 0 0 0-.09 3.88 2.039 2.039 0 0 0 2-1.773m5.068-2.047a1.874 1.874 0 0 0-1.864 1.654 1.946 1.946 0 1 0 3.878.264 1.893 1.893 0 0 0-2.014-1.918m7.521 3.747a1.9 1.9 0 0 0 1.94-1.891 1.981 1.981 0 0 0-1.965-1.908 1.914 1.914 0 0 0-1.91 1.935 1.8 1.8 0 0 0 1.934 1.863" transform="translate(-107.512 -44.264)" style="fill:url(#mh8n4mb0ba)"/>
    </g>
</svg>
