<svg data-name="Connect with us" xmlns="http://www.w3.org/2000/svg" width="90.591" height="90.591" viewBox="0 0 90.591 90.591">
    <defs>
        <linearGradient id="knsi32qoqa" x1="-2.203" y1="-1.257" x2=".723" y2="2.31" gradientUnits="objectBoundingBox">
            <stop offset="0" stop-color="#e51937"/>
            <stop offset="1" stop-color="#b41028"/>
        </linearGradient>
        <clipPath id="r6nylgwvjb">
            <path data-name="Rectangle 10582" style="fill:url(#knsi32qoqa)" d="M0 0h46.015v46.013H0z"/>
        </clipPath>
    </defs>
    <g data-name="Path 15362" style="fill:#fff;opacity:.5">
        <path d="M71.94 90.091H18.651a18.091 18.091 0 0 1-12.835-5.316A18.091 18.091 0 0 1 .5 71.94V18.651A18.091 18.091 0 0 1 5.816 5.816 18.091 18.091 0 0 1 18.651.5h53.29a18.091 18.091 0 0 1 12.835 5.316 18.091 18.091 0 0 1 5.315 12.835v53.29a18.091 18.091 0 0 1-5.316 12.835A18.091 18.091 0 0 1 71.94 90.09z" style="stroke:none"/>
        <path d="M18.651 1A17.536 17.536 0 0 0 6.17 6.17 17.536 17.536 0 0 0 1 18.65v53.29c0 4.714 1.836 9.147 5.17 12.48a17.536 17.536 0 0 0 12.481 5.17h53.29c4.714 0 9.147-1.836 12.48-5.17a17.536 17.536 0 0 0 5.17-12.48V18.65c0-4.715-1.836-9.147-5.17-12.481A17.536 17.536 0 0 0 71.942 1H18.65m0-1h53.29c10.3 0 18.65 8.35 18.65 18.651v53.29c0 10.3-8.35 18.65-18.65 18.65H18.65C8.351 90.591 0 82.241 0 71.941V18.65C0 8.351 8.35 0 18.651 0z" style="fill:#c1c1c1;stroke:none"/>
    </g>
    <g data-name="Group 38802" style="clip-path:url(#r6nylgwvjb)" transform="translate(22.288 22.29)">
        <path data-name="Path 20944" d="M0 6.123a2.125 2.125 0 0 1 1.249-1.259C4.125 3.53 6.988 2.169 9.856.818a1.6 1.6 0 0 1 2.219.614Q14.84 5.713 17.593 10a1.594 1.594 0 0 1-.242 2.194c-1.055 1.063-2.093 2.145-3.185 3.169a2.125 2.125 0 0 0-.642 2.149A18.35 18.35 0 0 0 17.51 25.8a20.376 20.376 0 0 0 8.29 6.262 29.758 29.758 0 0 0 3.7 1.031 1.53 1.53 0 0 0 1.5-.508q1.646-1.658 3.3-3.305a1.622 1.622 0 0 1 2.332-.25q4.213 2.7 8.421 5.416a1.629 1.629 0 0 1 .661 2.315q-2.053 4.364-4.112 8.725a1.639 1.639 0 0 1-1.868 1.058A40.561 40.561 0 0 1 22.7 40.552 49.06 49.06 0 0 1 2.4 16.523 37.739 37.739 0 0 1 .08 7.232a2.134 2.134 0 0 0-.08-.3v-.809" transform="translate(0 -.551)" style="fill:url(#knsi32qoqa)"/>
        <path data-name="Path 20945" d="M240.929 0c.842.116 1.687.209 2.524.35a23.081 23.081 0 0 1 18.413 17.3 22.8 22.8 0 0 1 .631 5.336 1.58 1.58 0 0 1-3.092.489 2.874 2.874 0 0 1-.076-.71 19.5 19.5 0 0 0-4.4-12.175A19.427 19.427 0 0 0 241.8 3.324c-.741-.092-1.491-.115-2.238-.154a1.574 1.574 0 0 1-1.631-1.312 1.572 1.572 0 0 1 1.092-1.784.622.622 0 0 0 .108-.074h1.8" transform="translate(-216.481)" style="fill:url(#knsi32qoqa)"/>
        <path data-name="Path 20946" d="M240.17 88.026c6.04.57 10.452 3.492 13.052 9.016a14.415 14.415 0 0 1 1.288 5.829 1.628 1.628 0 0 1-1.557 1.824 1.607 1.607 0 0 1-1.622-1.718 11.246 11.246 0 0 0-1.107-4.859 11.7 11.7 0 0 0-10.4-6.9c-.179-.011-.36-.009-.538-.031a1.585 1.585 0 0 1 .165-3.164c.239-.007.479 0 .718 0" transform="translate(-216.425 -80.097)" style="fill:url(#knsi32qoqa)"/>
    </g>
</svg>
