<svg xmlns="http://www.w3.org/2000/svg" width="90.591" height="90.591" viewBox="0 0 90.591 90.591">
    <defs>
        <linearGradient id="kimaxpt74a" x1=".5" x2=".5" y2="1" gradientUnits="objectBoundingBox">
            <stop offset="0" stop-color="#e51937"/>
            <stop offset="1" stop-color="#b41028"/>
        </linearGradient>
    </defs>
    <g data-name="Group 36692">
        <g data-name="Path 15365" style="opacity:.5;fill:#fff">
            <path d="M71.94 90.091H18.651a18.091 18.091 0 0 1-12.835-5.316A18.091 18.091 0 0 1 .5 71.94V18.651A18.091 18.091 0 0 1 5.816 5.816 18.091 18.091 0 0 1 18.651.5h53.29a18.091 18.091 0 0 1 12.835 5.316 18.091 18.091 0 0 1 5.315 12.835v53.29a18.091 18.091 0 0 1-5.316 12.835A18.091 18.091 0 0 1 71.94 90.09z" style="stroke:none"/>
            <path d="M18.651 1A17.536 17.536 0 0 0 6.17 6.17 17.536 17.536 0 0 0 1 18.65v53.29c0 4.714 1.836 9.147 5.17 12.48a17.536 17.536 0 0 0 12.481 5.17h53.29c4.714 0 9.147-1.836 12.48-5.17a17.536 17.536 0 0 0 5.17-12.48V18.65c0-4.715-1.836-9.147-5.17-12.481A17.536 17.536 0 0 0 71.942 1H18.65m0-1h53.29c10.3 0 18.65 8.35 18.65 18.651v53.29c0 10.3-8.35 18.65-18.65 18.65H18.65C8.351 90.591 0 82.241 0 71.941V18.65C0 8.351 8.35 0 18.651 0z" style="fill:#c1c1c1;stroke:none"/>
        </g>
        <g data-name="Group 36691">
            <path data-name="Subtraction 40" d="M9.292 40.268c-.677 0-1.1-.039-1.1-.039s-.613-.088-.613-.588c0-.358.3-.479.585-.6L8.273 39a8.131 8.131 0 0 0 3.984-4.957A17.581 17.581 0 0 1 0 17.5 17.046 17.046 0 0 1 5.34 5.127 18.5 18.5 0 0 1 18.233 0 18.589 18.589 0 0 1 30.66 4.7a17.174 17.174 0 0 1 5.754 11.481 13.37 13.37 0 0 0-1.141-.049A12.343 12.343 0 0 0 22.7 28.2a11.685 11.685 0 0 0 1.563 5.826 18.815 18.815 0 0 1-3.649.832c-2.693 4.883-8.814 5.41-11.322 5.41zm15.542-24.285a1.523 1.523 0 1 0 1.585 1.517 1.557 1.557 0 0 0-1.585-1.517zm-6.6 0a1.523 1.523 0 1 0 1.585 1.517 1.557 1.557 0 0 0-1.586-1.517zm-6.6 0a1.523 1.523 0 1 0 1.583 1.517 1.556 1.556 0 0 0-1.586-1.517z" transform="translate(26.296 26.866)" style="stroke:transparent;stroke-miterlimit:10;fill:url(#kimaxpt74a)"/>
            <path data-name="Path 20133" d="M22.586 13a9.586 9.586 0 1 0 9.586 9.586A9.6 9.6 0 0 0 22.586 13z" transform="translate(40.123 34.736)" style="fill:#404040"/>
            <path data-name="Path 20130" d="M20.1 26.719a.865.865 0 0 0-.286.667.953.953 0 1 0 1.62-.667.955.955 0 0 0-1.334 0zM20.761 15c-2.542 0-4.589 1.526-4.756 3.548a.953.953 0 0 0 .869 1.029.934.934 0 0 0 1.029-.869c.082-.995 1.366-1.8 2.858-1.8 1.549 0 2.86.873 2.86 1.906 0 .928-.9 1.528-2.841 1.887l-.208.04a.953.953 0 0 0-.76.932v1.906a.953.953 0 0 0 1.906 0v-1.128c2.529-.595 3.809-1.816 3.809-3.636 0-2.106-2.138-3.815-4.766-3.815z" transform="translate(41.946 36.653)" style="fill:#fff"/>
        </g>
    </g>
</svg>
