<svg xmlns="http://www.w3.org/2000/svg" width="82.732" height="90" viewBox="0 0 82.732 90">
    <g data-name="Group 66488" style="opacity:.108">
        <path data-name="Path 20951" d="M134.951 367.126a1.514 1.514 0 1 1-1.514-1.514 1.513 1.513 0 0 1 1.514 1.514" transform="translate(-131.923 -305.076)" style="fill:#fff"/>
        <g data-name="Group 66487">
            <path data-name="Path 20950" d="m199.738 328.526-8.331 3.777a22.677 22.677 0 0 1-9.429 2.038 24.6 24.6 0 0 1-10.878-2.681 23.6 23.6 0 0 0-31.141 11.968l-5.443 12.258a1.009 1.009 0 0 0 .512 1.331l16.008 7.119a1.009 1.009 0 0 0 1.332-.512c1.366-3.078 3.221-7.253 3.21-7.231.01-.021 1.512-3.4 1.52-3.425a5.805 5.805 0 0 1 7.663-2.944 24.831 24.831 0 0 0 20.362-.073l20.257-9.184a6.83 6.83 0 0 0-5.64-12.441zm-48.807 33.556-14.164-6.3 2.48-5.587 14.086 6.475zm53.613-22.955-20.257 9.184a22.811 22.811 0 0 1-18.708.067 7.825 7.825 0 0 0-10.327 3.968l-1.1 2.479-14.086-6.475 1.733-3.9a21.578 21.578 0 0 1 28.477-10.95 26.434 26.434 0 0 0 11.7 2.857 24.683 24.683 0 0 0 10.262-2.218l8.331-3.777a4.776 4.776 0 0 1 6.047 1.792c.891 1.37.5 5.805-2.072 6.973z" transform="translate(-133.958 -274.425)" style="fill:#fff"/>
            <path data-name="Path 20952" d="M554.951 404.816a1.514 1.514 0 1 1-1.514-1.514 1.513 1.513 0 0 1 1.514 1.514" transform="translate(-473.227 -335.704)" style="fill:#fff"/>
            <path data-name="Path 20953" d="M522.644 216.356a1.513 1.513 0 1 1-1.514-1.514 1.513 1.513 0 0 1 1.514 1.514" transform="translate(-446.975 -182.556)" style="fill:#fff"/>
            <path data-name="Path 20954" d="M463.411 49.431a1.514 1.514 0 1 1-1.514-1.513 1.514 1.514 0 0 1 1.514 1.513" transform="translate(-398.84 -46.908)" style="fill:#fff"/>
            <path data-name="Path 20955" d="M258.794 44.045a1.513 1.513 0 1 1-1.513-1.514 1.513 1.513 0 0 1 1.513 1.514" transform="translate(-232.563 -42.531)" style="fill:#fff"/>
            <path data-name="Path 20956" d="M156.491 124.816a1.514 1.514 0 1 1-1.514-1.514 1.513 1.513 0 0 1 1.514 1.514" transform="translate(-149.428 -108.168)" style="fill:#fff"/>
            <path data-name="Path 20957" d="M221.1 259.429a1.513 1.513 0 1 1-1.514-1.513 1.514 1.514 0 0 1 1.514 1.513" transform="translate(-201.935 -217.559)" style="fill:#fff"/>
            <path data-name="Path 20958" d="M468.794 464.046a1.513 1.513 0 1 1-1.513-1.514 1.513 1.513 0 0 1 1.513 1.514" transform="translate(-403.215 -383.836)" style="fill:#fff"/>
            <g data-name="Group 66485">
                <path data-name="Path 20948" d="M345.49 223.36h3.155v3.922h-3.155z" transform="translate(-305.473 -189.478)" style="fill:#fff"/>
                <g data-name="Group 66484">
                    <path data-name="Path 20949" d="M336.519 145.625a3.115 3.115 0 0 1 3.013.412 2.421 2.421 0 0 1 .6.767 2.57 2.57 0 0 1-.185 2.458 4.5 4.5 0 0 1-1.009 1.066 18.784 18.784 0 0 1-2.274 1.364 4.15 4.15 0 0 0-1.876 1.933 6.544 6.544 0 0 0-.455 2.5h3.126a2.312 2.312 0 0 1 .3-1.208 3.4 3.4 0 0 1 .767-.881 6.806 6.806 0 0 1 1.038-.7c1.754-.965 3.329-1.932 3.908-3.823a6.267 6.267 0 0 0-.313-4.149 5.177 5.177 0 0 0-3.254-2.743c-3.2-.951-6.794.3-8.072 3.354l2.472 1.705a4.694 4.694 0 0 1 2.218-2.061z" transform="translate(-294.371 -123.618)" style="fill:#fff"/>
                    <path data-name="Path 20959" d="M271.568 122.6a21.188 21.188 0 1 0-21.188-21.188 21.212 21.212 0 0 0 21.188 21.188zm0-40.356a19.17 19.17 0 1 1-19.17 19.17 19.192 19.192 0 0 1 19.17-19.174z" transform="translate(-228.184 -73.158)" style="fill:#fff"/>
                    <path data-name="Path 20960" d="M288.58 156.309a1.009 1.009 0 0 0 0-1.427 13.131 13.131 0 0 1 0-18.549 1.009 1.009 0 0 0-1.427-1.426 15.152 15.152 0 0 0 0 21.4 1.009 1.009 0 0 0 1.427 0z" transform="translate(-254.471 -117.358)" style="fill:#fff"/>
                    <path data-name="Path 20961" d="M412.391 156.6a1.007 1.007 0 0 0 .714-.3 15.152 15.152 0 0 0 0-21.4 1.009 1.009 0 1 0-1.426 1.427 13.131 13.131 0 0 1 0 18.549 1.01 1.01 0 0 0 .713 1.723z" transform="translate(-359.018 -117.353)" style="fill:#fff"/>
                </g>
            </g>
            <path data-name="Path 20962" d="M136.972 208.775a5.044 5.044 0 1 0-5.044-5.044 5.05 5.05 0 0 0 5.044 5.044zm0-8.071a3.026 3.026 0 1 1-3.026 3.026 3.03 3.03 0 0 1 3.026-3.03z" transform="translate(-131.927 -169.427)" style="fill:#fff"/>
            <path data-name="Path 20963" d="M520.95 97.045a6.054 6.054 0 1 0-6.05 6.055 6.06 6.06 0 0 0 6.05-6.055zm-6.054 4.036a4.036 4.036 0 1 1 4.036-4.036 4.041 4.041 0 0 1-4.032 4.036z" transform="translate(-438.218 -81.911)" style="fill:#fff"/>
        </g>
    </g>
</svg>
