<svg xmlns="http://www.w3.org/2000/svg" width="24.449" height="24.449" viewBox="0 0 24.449 24.449">
    <g data-name="Group 66486">
        <path data-name="Path 20948" d="M345.49 223.36h1.82v2.263h-1.82z" transform="translate(-335.208 -207.886)" style="fill:#fff"/>
        <g data-name="Group 66484">
            <path data-name="Path 20949" d="M334.534 144.224a1.8 1.8 0 0 1 1.738.238 1.4 1.4 0 0 1 .345.443 1.483 1.483 0 0 1-.107 1.418 2.594 2.594 0 0 1-.582.615 10.843 10.843 0 0 1-1.312.787 2.394 2.394 0 0 0-1.082 1.115 3.774 3.774 0 0 0-.262 1.443h1.8a1.334 1.334 0 0 1 .172-.7 1.958 1.958 0 0 1 .443-.508 3.926 3.926 0 0 1 .6-.4 4.032 4.032 0 0 0 2.255-2.206 3.616 3.616 0 0 0-.18-2.394 2.987 2.987 0 0 0-1.877-1.582 3.792 3.792 0 0 0-4.657 1.935l1.426.984a2.708 2.708 0 0 1 1.28-1.189z" transform="translate(-323.023 -135.602)" style="fill:#fff"/>
            <path data-name="Path 20959" d="M262.6 104.669a12.225 12.225 0 1 0-12.22-12.224 12.238 12.238 0 0 0 12.22 12.224zm0-23.284a11.06 11.06 0 1 1-11.06 11.06 11.073 11.073 0 0 1 11.06-11.06z" transform="translate(-250.38 -80.22)" style="fill:#fff"/>
            <path data-name="Path 20960" d="M286.1 147.13a.582.582 0 0 0 0-.823 7.576 7.576 0 0 1 0-10.7.582.582 0 1 0-.823-.823 8.742 8.742 0 0 0 0 12.349.582.582 0 0 0 .823 0z" transform="translate(-279.231 -128.731)" style="fill:#fff"/>
            <path data-name="Path 20961" d="M411.964 147.3a.581.581 0 0 0 .412-.171 8.742 8.742 0 0 0 0-12.349.582.582 0 0 0-.823.823 7.576 7.576 0 0 1 0 10.7.583.583 0 0 0 .411.994z" transform="translate(-393.976 -128.726)" style="fill:#fff"/>
        </g>
    </g>
</svg>
