<svg xmlns="http://www.w3.org/2000/svg" width="14.709" height="10.283" viewBox="0 0 14.709 10.283">
    <path data-name="Path 8894" d="m11.79 5.572.023-.031.019-.032.017-.028.016-.034.014-.03.012-.033.012-.033c.004-.011.006-.022.009-.034l.008-.035c.002-.012 0-.026.006-.04s0-.02 0-.03a.709.709 0 0 0 0-.142v-.03c0-.01 0-.027-.006-.04s-.005-.023-.008-.035l-.009-.033-.012-.034-.012-.033-.014-.03a.982.982 0 0 0-.016-.034l-.017-.029-.019-.032-.023-.031-.019-.026a.7.7 0 0 0-.048-.053L7.3.211a.719.719 0 0 0-1.017 1.017l3.195 3.194H-2.056a.719.719 0 0 0-.719.719.719.719 0 0 0 .719.72H9.478L6.283 9.055A.719.719 0 1 0 7.3 10.072l4.423-4.422a.604.604 0 0 0 .048-.053l.019-.026" transform="translate(2.776)" style="fill:#fff"/>
</svg>
