<svg xmlns="http://www.w3.org/2000/svg" width="22.078" height="22.078" viewBox="0 0 22.078 22.078">
    <g data-name="Right - Text Buttons - 1">
        <g data-name="Buttons - Close">
            <path d="M11.039 0A11.039 11.039 0 1 1 0 11.039 11.039 11.039 0 0 1 11.039 0z" style="fill:#e8eaed"/>
            <path data-name="􀅾" d="M-5.154-3.307a.759.759 0 0 0 1.046.007L-1.417-6l2.691 2.693a.748.748 0 0 0 1.046-.006.746.746 0 0 0 .006-1.041L-.365-7.05l2.691-2.691a.746.746 0 0 0-.006-1.041.753.753 0 0 0-1.046-.006L-1.417-8.1l-2.691-2.7a.759.759 0 0 0-1.046.006.759.759 0 0 0-.006 1.053l2.7 2.691-2.7 2.7a.759.759 0 0 0 .006 1.043z" transform="translate(12.486 18.12)" style="fill:#404040;opacity:.632"/>
        </g>
    </g>
</svg>
