<svg xmlns="http://www.w3.org/2000/svg" width="1440" height="200" viewBox="0 0 1440 200">
    <defs>
        <linearGradient id="mp917e8yta" x1=".015" y1=".525" x2=".611" y2=".5" gradientUnits="objectBoundingBox">
            <stop offset="0" stop-color="#b41028"/>
            <stop offset="1" stop-color="#84081b"/>
        </linearGradient>
        <clipPath id="zsru0qgiwb">
            <path data-name="Rectangle 3922" d="M0 0h296.22a16 16 0 0 1 16 16v164.871a16 16 0 0 1-16 16H0V0z" transform="translate(234 3588)" style="fill:#fff;stroke:#707070"/>
        </clipPath>
    </defs>
    <g data-name="Group 23494">
        <path data-name="Rectangle 1593" style="fill:url(#mp917e8yta)" d="M0 0h1440v200H0z"/>
        <g data-name="Mask Group 26" transform="translate(893.78 -3588)" style="opacity:.553;clip-path:url(#zsru0qgiwb)">
            <g data-name="Group 20395">
                <path data-name="Path 2408" d="M.081 329.177v-3.954q0-78.741-.03-157.514a5.706 5.706 0 0 1 3.058-5.648c21.291-13.083 42.457-26.45 63.715-39.661 23.188-14.434 46.464-28.773 69.682-43.238 24.316-15.155 48.513-30.436 72.918-45.654 23.752-14.779 47.593-29.275 71.315-44.179 2.613-1.632 4.157-1.694 6.8-.031 27.374 17.289 54.926 34.326 82.419 51.427q43.33 26.923 86.633 53.875 36.919 22.968 73.868 45.779c12.262 7.656 24.494 15.312 36.815 22.78 1.9 1.13 1.663 2.573 1.663 4.236V291.18c0 11.578.03 23.156 0 34.735-.03.941.534 2.259-.475 2.761-.861.471-1.663-.345-2.494-.91-12.826-8.033-25.711-15.94-38.537-23.91-9.976-6.181-19.862-12.52-29.838-18.669-11.787-7.342-23.633-14.465-35.39-21.839-10.956-6.746-21.792-13.712-32.718-20.521-11.787-7.28-23.633-14.559-35.39-21.87-9.887-6.15-19.744-12.331-29.6-18.45-9.263-5.8-18.645-11.484-27.879-17.32q-14.83-9.178-29.6-18.513c-7.244-4.518-14.548-9.037-21.792-13.555-.92-.628-1.425-.377-2.256.188q-28.591 17.744-57.242 35.55-23.292 14.449-46.554 28.9-27.255 17.085-54.51 34.013c-15.409 9.6-30.877 19.14-46.257 28.679Q50.925 297.628 23.6 314.65c-7.63 4.769-15.32 9.476-23.514 14.528" transform="translate(235.372 3871.251)" style="fill:none;stroke:#fff;fill-rule:evenodd"/>
                <path data-name="Path 2411" d="M.032 313.6v-3.928q0-78.9-.031-157.769c-.029-2.608.534-4.3 2.785-5.687q20.748-12.679 41.378-25.64c14.069-8.735 28.079-17.565 42.118-26.3q28.7-17.91 57.343-35.821c17.979-11.249 35.958-22.4 54.025-33.621Q224.8 7.822 251.913-9.131c9.33-5.907 18.69-11.752 27.99-17.659a5.727 5.727 0 0 1 6.96-.063c19.786 12.506 39.6 24.886 59.416 37.329q33.41 20.88 66.85 41.823c17.268 10.715 34.6 21.367 51.863 32.176 19.934 12.443 39.808 25.012 59.742 37.455q20.349 12.726 40.815 25.232a4.063 4.063 0 0 1 2.044 3.991q-.089 79.7 0 159.435c0 2.985-.741 3.142-2.962 1.791-11.344-7.227-22.747-14.328-34.18-21.461-11.818-7.384-23.7-14.674-35.513-22.09-10.87-6.818-21.711-13.637-32.64-20.456q-17.727-11.123-35.543-22.152c-10.87-6.787-21.711-13.669-32.611-20.456-11.788-7.353-23.577-14.58-35.365-21.932q-14.75-9.191-29.471-18.476c-12.884-8.075-25.828-16.056-38.742-24.132-1.362-.88-3.051-1.414-4.117-2.545-2.162-2.357-4.087-1.508-6.249-.157q-33.766 21.163-67.591 42.357-32.609 20.407-65.163 40.753c-20.141 12.632-40.312 25.075-60.393 37.643-21.77 13.606-43.451 27.274-65.221 40.817-7.079 4.43-14.188 8.861-21.8 13.511" transform="translate(234 3428.325)" style="fill:none;stroke:#fff;fill-rule:evenodd"/>
                <path data-name="Path 2415" d="M.112 238.675c0-26.206.059-52.411-.06-78.617a6.31 6.31 0 0 1 3.237-6.151c22.745-14.06 45.461-28.308 68.206-42.4 22.715-14.091 45.49-27.994 68.146-42.149q33.182-20.525 66.305-41.3Q232.4 11.533 258.979-5.085c7.483-4.645 15.114-9.133 22.537-13.935 2.108-1.381 3.622-1.161 5.582.094q27.348 17.183 54.755 34.3c20.637 12.867 41.333 25.641 62 38.508 23.785 14.813 47.569 29.721 71.383 44.471q42.4 26.409 84.864 52.662c1.633 1 3.118 2.448 4.84 3.107 3.771 1.318 4.127 4.049 4.127 7.721q-.178 77.769-.089 155.539c0 4.488-.03 4.551-3.741 2.26-12.768-8-25.507-16.1-38.334-24.04-15.411-9.541-30.97-18.956-46.352-28.528-14.579-9.07-29.01-18.328-43.53-27.4-15.441-9.54-30.941-19.019-46.381-28.591-10.749-6.653-21.469-13.432-32.218-20.117q-17.994-11.2-35.988-22.314-16.391-10.263-32.722-20.619c-1.514-.941-3.236-1.412-4.543-2.762-1.1-1.1-2.079.031-2.851.533-10.808 6.81-21.587 13.746-32.425 20.525-9.918 6.245-19.984 12.208-29.9 18.391-16.51 10.294-32.9 20.9-49.529 31.039-13.451 8.129-26.783 16.508-40.145 24.856-16.658 10.357-33.227 20.745-49.885 31.07C66 280.7 51.482 289.612 37.051 298.587c-11.729 7.375-23.517 14.656-35.187 22.032-1.425.91-1.693.345-1.722-.973-.03-.753-.03-1.569-.03-2.354z" transform="translate(235.371 3649.799)" style="fill:none;stroke:#fff;fill-rule:evenodd"/>
                <path data-name="Path 2418" d="M84.609 39.573c-.531 23.538-17.087 42.156-39.1 41.771-19.388-.289-37.3-18.072-36.475-43.8C9.771 15.166 25.8-4.127 48.813-2.809c19.418 1.093 35.8 18.586 35.8 42.382" transform="translate(473.108 4127.513)" style="fill:none;stroke:#fff;fill-rule:evenodd"/>
            </g>
        </g>
    </g>
</svg>
