<svg xmlns="http://www.w3.org/2000/svg" width="20" height="20" viewBox="0 0 20 20">
  <g id="Search_-_Icon" data-name="Search - Icon" transform="translate(0.5 0.386)">
    <g id="Group_14853" data-name="Group 14853" transform="translate(0)">
      <path id="Subtraction_33" data-name="Subtraction 33" d="M18.051,19a1.024,1.024,0,0,1-.665-.285L13.11,14.44a8.5,8.5,0,0,1-5.035,1.71A8.078,8.078,0,0,1,2.363,2.363,8.075,8.075,0,0,1,16.151,8.075a8.283,8.283,0,0,1-1.71,5.035l4.275,4.275a.92.92,0,0,1,0,1.33A1.022,1.022,0,0,1,18.051,19ZM8.075,1.9a6.175,6.175,0,1,0,2.4,11.875A6.191,6.191,0,0,0,12.446,3.7,6.138,6.138,0,0,0,8.075,1.9Z" transform="translate(0 0.114)" fill="#b8bfc5" stroke="rgba(0,0,0,0)" stroke-width="1"/>
    </g>
  </g>
</svg>
